<svg xmlns="http://www.w3.org/2000/svg" fill="none" viewBox="17.982 4 27.639 25.11111111111111" style="max-height: 500px" width="27.639" height="25.11111111111111">
<g clip-path="url(#clip0_116_59)">
<path fill="#112211" d="M14.7282 5.57666L17.9466 8.0081L15.9805 10.5097C17.3379 12.0456 17.8382 13.7983 17.8382 15.7294C17.8382 17.9091 17.0161 20.9843 14.1195 22.3068C17.0512 23.7726 17.7649 25.8822 17.7649 28.1352C17.7649 32.9981 14.0463 36 8.93505 36C3.82384 36 0 32.8897 0 28.1352H4.32413C4.32413 30.4233 6.43362 31.9242 8.93505 31.9242C11.4365 31.9242 13.4026 30.5667 13.4026 28.1352C13.4026 25.7038 11.1146 24.5948 8.93505 24.5948C3.4319 24.5948 0 21.236 0 15.7294C0 10.2228 4.00229 6.79079 8.93823 6.79079C10.3339 6.79079 11.7615 6.96924 12.9788 7.79141L14.7282 5.57666ZM4.32413 15.7294C4.32413 18.8046 6.39857 20.6274 8.93505 20.6274C11.4365 20.6274 13.5109 18.7695 13.5109 15.7294C13.5109 12.6893 11.4397 10.7614 8.93823 10.7614C6.39856 10.7614 4.32413 12.6543 4.32413 15.7294Z"/>
<path fill="#112211" d="M50.5671 0V24.99H46.2429V0H50.5671Z"/>
<path fill="#112211" d="M69.9987 16.1948C69.9987 21.2712 66.5317 25.382 60.8119 25.382C55.0921 25.382 51.6602 21.2712 51.6602 16.1948C51.6602 11.1534 55.1622 7.00757 60.7768 7.00757C66.3915 7.00757 69.9987 11.1534 69.9987 16.1948ZM56.0193 16.1948C56.0193 18.8748 57.6285 21.3795 60.8087 21.3795C63.9889 21.3795 65.5981 18.878 65.5981 16.1948C65.5981 13.5498 63.7403 10.975 60.8087 10.975C57.6636 10.975 56.0193 13.5498 56.0193 16.1948Z"/>
<path fill="#112211" d="M75.4507 0V9.76082C76.4864 7.93804 79.3829 6.93742 81.2407 6.93742C86.3869 6.93742 90.214 10.0827 90.214 16.1597C90.214 21.9499 86.3168 25.382 81.1355 25.382C78.991 25.382 76.8114 24.6681 75.4507 22.5586L75.164 24.99H71.0884V0H75.4507ZM75.7344 16.1597C75.7344 19.34 78.0924 21.3444 80.8456 21.3444C83.6338 21.3444 85.8516 19.2348 85.8516 16.1597C85.8516 12.9794 83.6338 11.0132 80.8456 11.0132C78.0956 11.01 75.7344 13.0845 75.7344 16.1597Z"/>
<path fill="#112211" d="M96.6987 19.2316C97.712 21.1819 100.032 22.0136 102.922 20.962C104.432 20.4107 106.207 19.1201 106.794 17.804L110.356 19.4356C109.27 21.8861 106.733 23.7981 104.213 24.7159C98.5023 26.7936 93.8244 24.5024 91.8934 19.1934C90.058 14.1552 92.1643 9.2796 97.5399 7.32298C103.081 5.30581 107.791 7.47275 109.633 14.5249L96.6987 19.2316ZM104.467 12.5619C103.416 10.5097 101.345 10.0476 98.993 10.9016C96.7752 11.7079 95.354 13.4446 95.5324 15.8123L104.467 12.5619Z"/>
<path fill="#8DD3BB" d="M40.6631 16.9663C40.3293 21.6812 36.9319 25.3823 31.5049 25.3823C31.3562 25.3823 31.2091 25.3781 31.0635 25.3726C34.5431 22.9059 37.7604 20.088 40.6631 16.9663ZM31.4697 7.00732C35.4012 7.00732 38.347 9.04117 39.7607 11.9907C38.6493 13.2924 37.4858 14.5463 36.2734 15.7495C36.0785 13.2683 34.2686 10.9751 31.502 10.9751C28.3601 10.9752 26.7129 13.5499 26.7129 16.1948C26.7129 18.4223 27.825 20.5265 30.0264 21.1743C28.8574 22.0605 27.657 22.9071 26.4258 23.7104C26.4258 23.7104 26.3419 23.7787 26.2021 23.8833C23.7342 22.2427 22.3535 19.4136 22.3535 16.1948C22.3535 11.1536 25.8553 7.00756 31.4697 7.00732Z" clip-rule="evenodd" fill-rule="evenodd"/>
<path fill="#8DD3BB" d="M43.3177 4.53779C38.8629 2.89983 35.6604 6.42431 35.6604 6.42431L38.6972 8.18973C39.8348 7.53646 40.3414 8.17061 40.4721 8.51796C40.5645 8.76333 40.4402 9.03102 40.3414 9.1776L39.6022 10.1113C35.6126 14.9232 30.922 19.1041 25.6866 22.5203C25.6866 22.5203 24.106 23.7949 23.2648 23.8141C22.5574 23.83 22.2419 23.2341 22.8378 22.38L21.372 19.0723C21.372 19.0723 17.5577 21.5706 18.297 25.9619C18.6093 27.8165 20.3523 29.1358 22.2037 28.8012C23.1501 28.6323 24.3195 28.1703 25.7503 27.2238L28.3824 25.503C33.6179 22.0805 38.3116 17.8868 42.298 13.0685L43.203 11.9755C44.5668 10.4236 45.1786 9.14574 45.3857 8.13556C45.7044 6.59001 44.7899 5.07952 43.3177 4.53779Z"/>
</g>
<defs>
<clipPath id="clip0_116_59">
<rect fill="white" height="36" width="110.353"/>
</clipPath>
</defs>
</svg>