<svg width="120" height="84" viewBox="0 0 120 84" fill="none" xmlns="http://www.w3.org/2000/svg">
<g clip-path="url(#clip0_223_201)">
<path d="M16.0157 6.06421L19.5155 8.70821L17.3775 11.4284C18.8536 13.0987 19.3976 15.0046 19.3976 17.1045C19.3976 19.4748 18.5037 22.8188 15.3539 24.2569C18.5418 25.8509 19.318 28.1449 19.318 30.5948C19.318 35.8828 15.2742 39.1471 9.71615 39.1471C4.15812 39.1471 0 35.765 0 30.5948H4.70215C4.70215 33.0829 6.99604 34.715 9.71615 34.715C12.4363 34.715 14.5742 33.2388 14.5742 30.5948C14.5742 27.9508 12.0863 26.7449 9.71615 26.7449C3.73192 26.7449 0 23.0925 0 17.1045C0 11.1166 4.35217 7.38448 9.71961 7.38448C11.2373 7.38448 12.7897 7.57853 14.1134 8.47257L16.0157 6.06421ZM4.70215 17.1045C4.70215 20.4485 6.95793 22.4307 9.71615 22.4307C12.4363 22.4307 14.692 20.4104 14.692 17.1045C14.692 13.7987 12.4397 11.7022 9.71961 11.7022C6.95793 11.7022 4.70215 13.7606 4.70215 17.1045Z" fill="#112211"/>
<path d="M54.9877 0V27.1746H50.2855V0H54.9877Z" fill="#112211"/>
<path d="M76.1179 17.6105C76.1179 23.1307 72.3479 27.6008 66.128 27.6008C59.9082 27.6008 56.1763 23.1307 56.1763 17.6105C56.1763 12.1284 59.9844 7.62012 66.0899 7.62012C72.1954 7.62012 76.1179 12.1284 76.1179 17.6105ZM60.9165 17.6105C60.9165 20.5248 62.6664 23.2485 66.1246 23.2485C69.5828 23.2485 71.3326 20.5282 71.3326 17.6105C71.3326 14.7343 69.3125 11.9344 66.1246 11.9344C62.7045 11.9344 60.9165 14.7343 60.9165 17.6105Z" fill="#112211"/>
<path d="M82.0467 0V10.6141C83.1729 8.63198 86.3226 7.54389 88.3428 7.54389C93.9389 7.54389 98.1005 10.9641 98.1005 17.5724C98.1005 23.8688 93.8627 27.6009 88.2284 27.6009C85.8964 27.6009 83.5263 26.8246 82.0467 24.5306L81.7348 27.1746H77.303V0H82.0467ZM82.3551 17.5724C82.3551 21.0307 84.9193 23.2104 87.9131 23.2104C90.9451 23.2104 93.3568 20.9163 93.3568 17.5724C93.3568 14.114 90.9451 11.976 87.9131 11.976C84.9227 11.9725 82.3551 14.2284 82.3551 17.5724Z" fill="#112211"/>
<path d="M105.152 20.9129C106.254 23.0336 108.777 23.9381 111.919 22.7945C113.562 22.195 115.492 20.7916 116.129 19.3604L120.003 21.1347C118.822 23.7994 116.064 25.8786 113.323 26.8766C107.113 29.136 102.026 26.6444 99.9266 20.8713C97.9307 15.3927 100.221 10.0908 106.067 7.96318C112.093 5.76966 117.214 8.12604 119.217 15.7947L105.152 20.9129ZM113.6 13.6601C112.456 11.4284 110.204 10.926 107.647 11.8547C105.235 12.7314 103.69 14.62 103.884 17.1946L113.6 13.6601Z" fill="#112211"/>
<path d="M44.2168 18.4478C43.8545 23.5755 40.1616 27.6009 34.2598 27.6011C34.0973 27.6011 33.9364 27.5954 33.7773 27.5894C37.5615 24.9069 41.0601 21.8426 44.2168 18.4478ZM34.2217 7.62061C38.496 7.62073 41.6978 9.83115 43.2354 13.0376C42.0266 14.4532 40.7618 15.817 39.4434 17.1255C39.231 14.4277 37.2641 11.9341 34.2559 11.9341C30.8393 11.9341 29.0479 14.7347 29.0479 17.6108C29.048 20.0324 30.2568 22.3209 32.6494 23.0259C31.3788 23.9892 30.0747 24.9104 28.7363 25.7837C28.7363 25.7837 28.6438 25.8558 28.4922 25.9692C25.8094 24.1852 24.3077 21.1103 24.3076 17.6108C24.3076 12.1288 28.1162 7.62061 34.2217 7.62061Z" fill="white"/>
<path d="M47.1046 4.93457C42.2604 3.15342 38.778 6.986 38.778 6.986L42.0802 8.90576C43.3172 8.19538 43.8682 8.88497 44.0103 9.26268C44.1108 9.52951 43.9756 9.82059 43.8682 9.97999L43.0643 10.9953C38.726 16.2279 33.6254 20.7743 27.9322 24.4891C27.9322 24.4891 26.2135 25.8752 25.2987 25.896C24.5295 25.9133 24.1864 25.2653 24.8344 24.3366L23.2404 20.7396C23.2404 20.7396 19.0927 23.4564 19.8966 28.2316C20.2362 30.2483 22.1316 31.683 24.1448 31.3191C25.174 31.1354 26.4457 30.633 28.0015 29.6038L30.8637 27.7326C36.5568 24.0109 41.6609 19.4506 45.9958 14.2111L46.9799 13.0225C48.4629 11.3349 49.1282 9.94534 49.3535 8.84685C49.7 7.1662 48.7055 5.52366 47.1046 4.93457Z" fill="white"/>
</g>
<path fill-rule="evenodd" clip-rule="evenodd" d="M1 73.0503C1 77.5248 4.24975 81.2455 8.5 82V75.4998H6.25V73H8.5V70.9998C8.5 68.7498 9.94975 67.5002 12.0002 67.5002C12.6497 67.5002 13.3503 67.6 13.9998 67.6997V70H12.85C11.7498 70 11.5 70.5497 11.5 71.2502V73H13.9L13.5002 75.4998H11.5V82C15.7502 81.2455 19 77.5255 19 73.0503C19 68.0725 14.95 64 10 64C5.05 64 1 68.0725 1 73.0503Z" fill="#112211"/>
<path d="M51.7029 67.2612C51.0071 67.5696 50.2596 67.7779 49.4737 67.8721C50.2846 67.3869 50.8912 66.6233 51.1804 65.7237C50.4186 66.1762 49.5849 66.4947 48.7154 66.6654C48.1307 66.0411 47.3563 65.6273 46.5124 65.4883C45.6684 65.3493 44.8022 65.4927 44.0481 65.8965C43.2941 66.3002 42.6944 66.9415 42.3422 67.721C41.99 68.5004 41.905 69.3744 42.1004 70.2071C40.5568 70.1296 39.0468 69.7284 37.6683 69.0295C36.2898 68.3306 35.0736 67.3497 34.0987 66.1504C33.7654 66.7254 33.5738 67.3921 33.5738 68.1021C33.5734 68.7412 33.7308 69.3706 34.032 69.9344C34.3332 70.4981 34.7689 70.9788 35.3004 71.3337C34.684 71.3141 34.0811 71.1476 33.5421 70.8479V70.8979C33.542 71.7944 33.8521 72.6632 34.4197 73.3571C34.9874 74.0509 35.7776 74.527 36.6562 74.7046C36.0844 74.8593 35.4849 74.8821 34.9029 74.7712C35.1508 75.5426 35.6337 76.2171 36.2841 76.7003C36.9344 77.1836 37.7195 77.4514 38.5296 77.4662C37.1544 78.5458 35.4562 79.1313 33.7079 79.1287C33.3982 79.1288 33.0888 79.1107 32.7812 79.0746C34.5558 80.2156 36.6215 80.8211 38.7312 80.8187C45.8729 80.8187 49.7771 74.9037 49.7771 69.7737C49.7771 69.6071 49.7729 69.4387 49.7654 69.2721C50.5248 68.7229 51.1803 68.0428 51.7013 67.2637L51.7029 67.2612Z" fill="#112211"/>
<g clip-path="url(#clip1_223_201)">
<path d="M83.5829 68.5695C83.4696 68.1655 83.249 67.7998 82.9445 67.5112C82.6314 67.2137 82.2477 67.0009 81.8295 66.8928C80.2645 66.4803 73.9945 66.4803 73.9945 66.4803C71.3806 66.4506 68.7674 66.5814 66.1695 66.872C65.7514 66.988 65.3683 67.2056 65.0545 67.5053C64.7462 67.802 64.5229 68.1678 64.4062 68.5687C64.1259 70.0784 63.9898 71.6114 63.9995 73.147C63.9895 74.6812 64.1254 76.2137 64.4062 77.7253C64.5204 78.1245 64.7429 78.4887 65.052 78.7828C65.3612 79.077 65.7462 79.2895 66.1695 79.402C67.7554 79.8137 73.9945 79.8137 73.9945 79.8137C76.6118 79.8434 79.2283 79.7126 81.8295 79.422C82.2477 79.314 82.6314 79.1012 82.9445 78.8037C83.2489 78.5151 83.4693 78.1493 83.582 77.7453C83.8696 76.2361 84.0094 74.7025 83.9995 73.1662C84.0212 71.6233 83.8815 70.0825 83.5829 68.5687V68.5695ZM72.0012 76.0003V70.2945L77.2179 73.1478L72.0012 76.0003Z" fill="#112211"/>
</g>
<path d="M105.498 70.6655C103.937 70.6655 102.663 71.9392 102.663 73.5C102.663 75.0608 103.937 76.3345 105.498 76.3345C107.059 76.3345 108.332 75.0608 108.332 73.5C108.332 71.9392 107.059 70.6655 105.498 70.6655ZM113.999 73.5C113.999 72.3262 114.01 71.163 113.944 69.9914C113.878 68.6305 113.568 67.4226 112.573 66.4275C111.575 65.4302 110.37 65.1218 109.009 65.0559C107.835 64.99 106.672 65.0006 105.5 65.0006C104.326 65.0006 103.163 64.99 101.991 65.0559C100.63 65.1218 99.4226 65.4323 98.4275 66.4275C97.4302 67.4248 97.1218 68.6305 97.0559 69.9914C96.99 71.1652 97.0006 72.3283 97.0006 73.5C97.0006 74.6717 96.99 75.837 97.0559 77.0086C97.1218 78.3695 97.4323 79.5774 98.4275 80.5725C99.4248 81.5698 100.63 81.8782 101.991 81.9441C103.165 82.01 104.328 81.9994 105.5 81.9994C106.674 81.9994 107.837 82.01 109.009 81.9441C110.37 81.8782 111.577 81.5677 112.573 80.5725C113.57 79.5752 113.878 78.3695 113.944 77.0086C114.012 75.837 113.999 74.6738 113.999 73.5ZM105.498 77.8613C103.084 77.8613 101.137 75.9135 101.137 73.5C101.137 71.0865 103.084 69.1387 105.498 69.1387C107.911 69.1387 109.859 71.0865 109.859 73.5C109.859 75.9135 107.911 77.8613 105.498 77.8613ZM110.038 69.9786C109.474 69.9786 109.019 69.5236 109.019 68.9601C109.019 68.3966 109.474 67.9415 110.038 67.9415C110.601 67.9415 111.056 68.3966 111.056 68.9601C111.057 69.0939 111.03 69.2264 110.979 69.35C110.928 69.4737 110.853 69.586 110.758 69.6807C110.664 69.7753 110.551 69.8503 110.428 69.9014C110.304 69.9526 110.172 69.9788 110.038 69.9786Z" fill="#112211"/>
<defs>
<clipPath id="clip0_223_201">
<rect width="120" height="39.1471" fill="white"/>
</clipPath>
<clipPath id="clip1_223_201">
<rect width="20" height="20" fill="white" transform="translate(64 63.1471)"/>
</clipPath>
</defs>
</svg>
